<?xml version="1.0" encoding="UTF-8" standalone="no"?>
<!-- Created with Inkscape (http://www.inkscape.org/) -->
<svg
   xmlns:dc="http://purl.org/dc/elements/1.1/"
   xmlns:cc="http://creativecommons.org/ns#"
   xmlns:rdf="http://www.w3.org/1999/02/22-rdf-syntax-ns#"
   xmlns:svg="http://www.w3.org/2000/svg"
   xmlns="http://www.w3.org/2000/svg"
   xmlns:sodipodi="http://sodipodi.sourceforge.net/DTD/sodipodi-0.dtd"
   xmlns:inkscape="http://www.inkscape.org/namespaces/inkscape"
   id="svg2"
   sodipodi:version="0.32"
   inkscape:version="0.46"
   width="708.75"
   height="811.25"
   xml:space="preserve"
   sodipodi:docname="Figure_001-005-a.svg"
   inkscape:output_extension="org.inkscape.output.svg.inkscape"><metadata
     id="metadata7"><rdf:RDF><cc:Work
         rdf:about=""><dc:format>image/svg+xml</dc:format><dc:type
           rdf:resource="http://purl.org/dc/dcmitype/StillImage" /></cc:Work></rdf:RDF></metadata><defs
     id="defs5"><inkscape:perspective
       sodipodi:type="inkscape:persp3d"
       inkscape:vp_x="0 : 526.18109 : 1"
       inkscape:vp_y="0 : 1000 : 0"
       inkscape:vp_z="744.09448 : 526.18109 : 1"
       inkscape:persp3d-origin="372.04724 : 350.78739 : 1"
       id="perspective9" /></defs><sodipodi:namedview
     inkscape:window-height="846"
     inkscape:window-width="1434"
     inkscape:pageshadow="2"
     inkscape:pageopacity="0.0"
     guidetolerance="10.0"
     gridtolerance="10.0"
     objecttolerance="10.0"
     borderopacity="1.0"
     bordercolor="#666666"
     pagecolor="#ffffff"
     id="base"
     showgrid="false"
     inkscape:zoom="0.57442219"
     inkscape:cx="168.22891"
     inkscape:cy="365.85118"
     inkscape:window-x="0"
     inkscape:window-y="0"
     inkscape:current-layer="g11" /><g
     id="g11"
     inkscape:groupmode="layer"
     inkscape:label="Figure_001-005-a"
     transform="matrix(1.25,0,0,-1.25,0,811.25)"><path
       d="M 0.059998,0.059998 L 567,0.059998 L 567,649.02 L 0.059998,649.02 L 0.059998,0.059998 z"
       style="fill:#ffffff;fill-opacity:1;fill-rule:nonzero;stroke:none"
       id="path13" /><path
       d="M 56.75,65 L 550,65 L 550,636.25 L 56.75,636.25 L 56.75,65 z"
       style="fill:#ffffff;fill-opacity:1;fill-rule:nonzero;stroke:none"
       id="path15" /><path
       d="M 550,65 L 56.75,65 L 56.75,636.25 L 550,636.25 L 550,65 z M 56.75,65 z"
       style="fill:none;stroke:#000000;stroke-opacity:1;stroke-width:0.75;stroke-linecap:butt;stroke-linejoin:miter;stroke-miterlimit:10;stroke-dasharray:none"
       id="path17" /><path
       d="M 56.75,65 L 550,65 L 550,636.25 L 56.75,636.25 L 56.75,65 z"
       style="fill:#ffffff;fill-opacity:1;fill-rule:nonzero;stroke:none"
       id="path19" /><path
       d="M 550,65 L 56.75,65 L 56.75,636.25 L 550,636.25 L 550,65 z M 56.75,65 z M 56.75,65 L 550,65"
       style="fill:none;stroke:#000000;stroke-opacity:1;stroke-width:0.75;stroke-linecap:butt;stroke-linejoin:miter;stroke-miterlimit:10;stroke-dasharray:none"
       id="path21" /><text
       transform="matrix(1,0,0,-1,467.5,16)"
       id="text23"><tspan
         style="fill:#000000;fill-opacity:1;fill-rule:nonzero;stroke:none;font-family:Times;font-variant:normal;font-weight:bold;font-size:21.7171;writing-mode:lr;-inkscape-font-specification:Times-Bold"
         x="0 12.0747076 19.3065019 36.2024057 45.8447981 61.5245443 67.5618981 77.2042905"
         y="0"
         sodipodi:role="line"
         id="tspan25">p[GeV/c]</tspan></text>
<path
       d="M 72,73.5 L 72,65 M 92.5,73.5 L 92.5,65 M 108.5,73.5 L 108.5,65 M 121.5,73.5 L 121.5,65 M 132.5,73.5 L 132.5,65 M 142,73.5 L 142,65 M 150.5,73.5 L 150.5,65 M 158,81.75 L 158,65"
       style="fill:none;stroke:#000000;stroke-opacity:1;stroke-width:0.75;stroke-linecap:butt;stroke-linejoin:miter;stroke-miterlimit:10;stroke-dasharray:none"
       id="path27" /><text
       transform="matrix(1,0,0,-1,145.9253,31.75)"
       id="text29"><tspan
         style="fill:#000000;fill-opacity:1;fill-rule:nonzero;stroke:none;font-family:Helvetica;font-variant:normal;font-weight:normal;font-size:21.7171;writing-mode:lr;-inkscape-font-specification:Helvetica"
         x="0 12.0747076"
         y="0"
         sodipodi:role="line"
         id="tspan31">10</tspan></text>
<path
       d="M 207.5,73.5 L 207.5,65 M 236.5,73.5 L 236.5,65 M 257,73.5 L 257,65 M 273,73.5 L 273,65 M 286,73.5 L 286,65 M 297,73.5 L 297,65 M 306.5,73.5 L 306.5,65 M 315,73.5 L 315,65 M 322.5,81.75 L 322.5,65"
       style="fill:none;stroke:#000000;stroke-opacity:1;stroke-width:0.75;stroke-linecap:butt;stroke-linejoin:miter;stroke-miterlimit:10;stroke-dasharray:none"
       id="path33" /><text
       transform="matrix(1,0,0,-1,330.25,42.25)"
       id="text35"><tspan
         style="fill:#000000;fill-opacity:1;fill-rule:nonzero;stroke:none;font-family:Helvetica;font-variant:normal;font-weight:normal;font-size:13.716;writing-mode:lr;-inkscape-font-specification:Helvetica"
         x="0"
         y="0"
         id="tspan37">2</tspan></text>
<text
       transform="matrix(1,0,0,-1,306.25,32)"
       id="text39"><tspan
         style="fill:#000000;fill-opacity:1;fill-rule:nonzero;stroke:none;font-family:Helvetica;font-variant:normal;font-weight:normal;font-size:21.7171;writing-mode:lr;-inkscape-font-specification:Helvetica"
         x="0 12.0747076"
         y="0"
         sodipodi:role="line"
         id="tspan41">10</tspan></text>
<path
       d="M 372,73.5 L 372,65 M 400.75,73.5 L 400.75,65 M 421.5,73.5 L 421.5,65 M 437.25,73.5 L 437.25,65 M 450.25,73.5 L 450.25,65 M 461.25,73.5 L 461.25,65 M 471,73.5 L 471,65 M 479.25,73.5 L 479.25,65 M 486.75,81.75 L 486.75,65"
       style="fill:none;stroke:#000000;stroke-opacity:1;stroke-width:0.75;stroke-linecap:butt;stroke-linejoin:miter;stroke-miterlimit:10;stroke-dasharray:none"
       id="path43" /><text
       transform="matrix(1,0,0,-1,493.75,42.25)"
       id="text45"><tspan
         style="fill:#000000;fill-opacity:1;fill-rule:nonzero;stroke:none;font-family:Helvetica;font-variant:normal;font-weight:normal;font-size:13.716;writing-mode:lr;-inkscape-font-specification:Helvetica"
         x="0"
         y="0"
         id="tspan47">3</tspan></text>
<text
       transform="matrix(1,0,0,-1,469.75,32)"
       id="text49"><tspan
         style="fill:#000000;fill-opacity:1;fill-rule:nonzero;stroke:none;font-family:Helvetica;font-variant:normal;font-weight:normal;font-size:21.7171;writing-mode:lr;-inkscape-font-specification:Helvetica"
         x="0 12.0747076"
         y="0"
         sodipodi:role="line"
         id="tspan51">10</tspan></text>
<path
       d="M 536.25,73.5 L 536.25,65 M 56.75,65 L 56.75,636.25"
       style="fill:none;stroke:#000000;stroke-opacity:1;stroke-width:0.75;stroke-linecap:butt;stroke-linejoin:miter;stroke-miterlimit:10;stroke-dasharray:none"
       id="path53" /><text
       transform="matrix(0,1,1,0,27.5,604.75)"
       id="text55"><tspan
         style="fill:#000000;fill-opacity:1;fill-rule:nonzero;stroke:none;font-family:Helvetica;font-variant:normal;font-weight:bold;font-size:21.7171;writing-mode:lr;-inkscape-font-specification:Helvetica-Bold"
         x="0 13.2691481 19.3065019"
         y="0"
         sodipodi:role="line"
         id="tspan57">p/p</tspan></text>
<text
       transform="matrix(0,1,1,0,27.5,591.0009)"
       id="text59"><tspan
         style="fill:#000000;fill-opacity:1;fill-rule:nonzero;stroke:none;font-family:Symbol;font-variant:normal;font-weight:normal;font-size:21.7171;writing-mode:lr;-inkscape-font-specification:Symbol"
         x="0"
         y="0"
         id="tspan61">∆</tspan></text>
<path
       d="M 71.75,65 L 56.75,65"
       style="fill:none;stroke:#000000;stroke-opacity:1;stroke-width:0.75;stroke-linecap:butt;stroke-linejoin:miter;stroke-miterlimit:10;stroke-dasharray:none"
       id="path63" /><text
       transform="matrix(1,0,0,-1,38.75,67.5)"
       id="text65"><tspan
         style="fill:#000000;fill-opacity:1;fill-rule:nonzero;stroke:none;font-family:Helvetica;font-variant:normal;font-weight:normal;font-size:13.716;writing-mode:lr;-inkscape-font-specification:Helvetica"
         x="0 4.567428"
         y="0"
         sodipodi:role="line"
         id="tspan67">-3</tspan></text>
<text
       transform="matrix(1,0,0,-1,14.75,57.25)"
       id="text69"><tspan
         style="fill:#000000;fill-opacity:1;fill-rule:nonzero;stroke:none;font-family:Helvetica;font-variant:normal;font-weight:normal;font-size:21.7171;writing-mode:lr;-inkscape-font-specification:Helvetica"
         x="0 12.0747076"
         y="0"
         sodipodi:role="line"
         id="tspan71">10</tspan></text>
<path
       d="M 64.25,122.25 L 56.75,122.25 M 64.25,155.75 L 56.75,155.75 M 64.25,179.5 L 56.75,179.5 M 64.25,198 L 56.75,198 M 64.25,213 L 56.75,213 M 64.25,225.75 L 56.75,225.75 M 64.25,237 L 56.75,237 M 64.25,246.75 L 56.75,246.75 M 71.75,255.25 L 56.75,255.25"
       style="fill:none;stroke:#000000;stroke-opacity:1;stroke-width:0.75;stroke-linecap:butt;stroke-linejoin:miter;stroke-miterlimit:10;stroke-dasharray:none"
       id="path73" /><text
       transform="matrix(1,0,0,-1,38.75,258.25)"
       id="text75"><tspan
         style="fill:#000000;fill-opacity:1;fill-rule:nonzero;stroke:none;font-family:Helvetica;font-variant:normal;font-weight:normal;font-size:13.716;writing-mode:lr;-inkscape-font-specification:Helvetica"
         x="0 4.567428"
         y="0"
         sodipodi:role="line"
         id="tspan77">-2</tspan></text>
<text
       transform="matrix(1,0,0,-1,14.75,248)"
       id="text79"><tspan
         style="fill:#000000;fill-opacity:1;fill-rule:nonzero;stroke:none;font-family:Helvetica;font-variant:normal;font-weight:normal;font-size:21.7171;writing-mode:lr;-inkscape-font-specification:Helvetica"
         x="0 12.0747076"
         y="0"
         sodipodi:role="line"
         id="tspan81">10</tspan></text>
<path
       d="M 64.25,312.75 L 56.75,312.75 M 64.25,346.25 L 56.75,346.25 M 64.25,370 L 56.75,370 M 64.25,388.5 L 56.75,388.5 M 64.25,403.5 L 56.75,403.5 M 64.25,416.25 L 56.75,416.25 M 64.25,427.25 L 56.75,427.25 M 64.25,437 L 56.75,437 M 71.75,445.75 L 56.75,445.75"
       style="fill:none;stroke:#000000;stroke-opacity:1;stroke-width:0.75;stroke-linecap:butt;stroke-linejoin:miter;stroke-miterlimit:10;stroke-dasharray:none"
       id="path83" /><text
       transform="matrix(1,0,0,-1,41.25,449.25)"
       id="text85"><tspan
         style="fill:#000000;fill-opacity:1;fill-rule:nonzero;stroke:none;font-family:Helvetica;font-variant:normal;font-weight:normal;font-size:13.716;writing-mode:lr;-inkscape-font-specification:Helvetica"
         x="0 4.567428"
         y="0"
         sodipodi:role="line"
         id="tspan87">-1</tspan></text>
<text
       transform="matrix(1,0,0,-1,17.25,439)"
       id="text89"><tspan
         style="fill:#000000;fill-opacity:1;fill-rule:nonzero;stroke:none;font-family:Helvetica;font-variant:normal;font-weight:normal;font-size:21.7171;writing-mode:lr;-inkscape-font-specification:Helvetica"
         x="0 12.0747076"
         y="0"
         sodipodi:role="line"
         id="tspan91">10</tspan></text>
<path
       d="M 64.25,503.25 L 56.75,503.25 M 64.25,536.75 L 56.75,536.75 M 64.25,560.5 L 56.75,560.5 M 64.25,579 L 56.75,579 M 64.25,594 L 56.75,594 M 64.25,606.75 L 56.75,606.75 M 64.25,617.75 L 56.75,617.75 M 64.25,627.5 L 56.75,627.5 M 71.75,636.25 L 56.75,636.25"
       style="fill:none;stroke:#000000;stroke-opacity:1;stroke-width:0.75;stroke-linecap:butt;stroke-linejoin:miter;stroke-miterlimit:10;stroke-dasharray:none"
       id="path93" /><text
       transform="matrix(1,0,0,-1,39.9253,627.5)"
       id="text95"><tspan
         style="fill:#000000;fill-opacity:1;fill-rule:nonzero;stroke:none;font-family:Helvetica;font-variant:normal;font-weight:normal;font-size:21.7171;writing-mode:lr;-inkscape-font-specification:Helvetica"
         x="0"
         y="0"
         id="tspan97">1</tspan></text>
<path
       d="M 121.5,437.25 L 131.5,435 L 142.25,433 L 152.75,431 L 164.25,429.25 L 174.5,428 L 185,427 L 187,426.75 L 195.75,426 L 205.25,425.75 L 215.75,425.5 L 227.25,425.5 L 240.5,426 L 256.25,426.5 L 273,427.5 L 293.5,428.75 L 304.25,429.75 L 313.5,430.5 L 322.5,431.75 L 329.75,432.75 L 339.5,434.75 L 353.75,437.75 L 368,440.75 L 376.5,442.5 L 378.75,442.75 L 393.75,444.75 L 400.25,445.75 L 405.5,447 L 410,448 L 416,450 L 426.5,453.5 L 433,456 L 451.5,462.25 L 462.25,465.75 L 470,468.75 L 477.75,472 L 483.5,474.5 L 488.75,477 L 493.75,479.75 L 500.75,483.75 L 506.75,487.5 L 514.5,492.5 L 521.25,497.25 L 528,502.25 L 534.75,507.25 L 539.75,511.5"
       style="fill:none;stroke:#000000;stroke-opacity:1;stroke-width:1.50000000000000000;stroke-linecap:butt;stroke-linejoin:miter;stroke-miterlimit:10;stroke-dasharray:3, 3;stroke-dashoffset:0"
       id="path99" /><path
       d="M 539.75,516.75 L 534.5,516.75 L 534.5,506.25 L 545,506.25 L 545,516.75"
       style="fill:#2f2f2f;fill-opacity:1;fill-rule:evenodd;stroke:none"
       id="path101" /><path
       d="M 493.75,485 L 488.5,485 L 488.5,474.5 L 499,474.5 L 499,485"
       style="fill:#2f2f2f;fill-opacity:1;fill-rule:evenodd;stroke:none"
       id="path103" /><path
       d="M 433,461.25 L 427.75,461.25 L 427.75,450.75 L 438.25,450.75 L 438.25,461.25"
       style="fill:#2f2f2f;fill-opacity:1;fill-rule:evenodd;stroke:none"
       id="path105" /><path
       d="M 405.5,452.25 L 400.25,452.25 L 400.25,441.75 L 410.75,441.75 L 410.75,452.25"
       style="fill:#2f2f2f;fill-opacity:1;fill-rule:evenodd;stroke:none"
       id="path107" /><path
       d="M 378.75,448 L 373.5,448 L 373.5,437.5 L 384,437.5 L 384,448"
       style="fill:#2f2f2f;fill-opacity:1;fill-rule:evenodd;stroke:none"
       id="path109" /><path
       d="M 322.5,437 L 317.25,437 L 317.25,426.5 L 327.75,426.5 L 327.75,437"
       style="fill:#2f2f2f;fill-opacity:1;fill-rule:evenodd;stroke:none"
       id="path111" /><path
       d="M 273,432.75 L 267.75,432.75 L 267.75,422.25 L 278.25,422.25 L 278.25,432.75"
       style="fill:#2f2f2f;fill-opacity:1;fill-rule:evenodd;stroke:none"
       id="path113" /><path
       d="M 187,432 L 181.75,432 L 181.75,421.5 L 192.25,421.5 L 192.25,432"
       style="fill:#2f2f2f;fill-opacity:1;fill-rule:evenodd;stroke:none"
       id="path115" /><path
       d="M 121.5,442.5 L 116.25,442.5 L 116.25,432 L 126.75,432 L 126.75,442.5"
       style="fill:#2f2f2f;fill-opacity:1;fill-rule:evenodd;stroke:none"
       id="path117" /><path
       d="M 115.75,437.25 L 56.75,437.25 M 127.25,437.25 L 158,437.25 M 158,435 L 158,439.75 M 121.5,431.75 L 121.5,431.5 M 119.25,431.5 L 123.75,431.5 M 181.25,426.75 L 158,426.75 M 158,424.5 L 158,429 M 192.75,426.75 L 207.5,426.75 M 207.5,424.5 L 207.5,429 M 267.25,427.5 L 247.5,427.5 M 247.5,425.25 L 247.5,429.75 M 278.75,427.5 L 291.75,427.5 M 291.75,425.25 L 291.75,429.75 M 316.75,431.75 L 306.5,431.75 M 306.5,429.25 L 306.5,434 M 328.25,431.75 L 335.5,431.75 M 335.5,429.25 L 335.5,434 M 373,442.75 L 368.25,442.75 M 368.25,440.5 L 368.25,445 M 384.5,442.75 L 387.75,442.75 M 387.75,440.5 L 387.75,445 M 399.75,447 L 398.5,447 M 398.5,444.5 L 398.5,449.25 M 411.25,447 L 411.75,447 M 411.75,444.5 L 411.75,449.25 M 488,479.75 L 486.75,479.75 M 486.75,477.5 L 486.75,482 M 499.25,479.75 L 499.75,479.75 M 499.75,477.5 L 499.75,482"
       style="fill:none;stroke:#000000;stroke-opacity:1;stroke-width:1.50000000000000000;stroke-linecap:butt;stroke-linejoin:miter;stroke-miterlimit:10;stroke-dasharray:3, 3;stroke-dashoffset:0"
       id="path119" /><path
       d="M 115.75,221.75 L 56.75,221.75 M 127.25,221.75 L 158,221.75 M 158,219.5 L 158,224 M 181.25,229.75 L 158,229.75 M 158,227.5 L 158,232 M 192.75,229.75 L 207.5,229.75 M 207.5,227.5 L 207.5,232 M 267.25,255 L 247.5,255 M 247.5,252.75 L 247.5,257.5 M 278.75,255 L 291.75,255 M 291.75,252.75 L 291.75,257.5 M 316.75,284 L 306.5,284 M 306.5,281.75 L 306.5,286.5 M 328.25,284 L 335.5,284 M 335.5,281.75 L 335.5,286.5 M 373,338.25 L 368.25,338.25 M 368.25,336 L 368.25,340.5 M 384.5,338.25 L 387.75,338.25 M 387.75,336 L 387.75,340.5 M 399.75,366.75 L 398.5,366.75 M 398.5,364.5 L 398.5,369.25 M 411.25,366.75 L 411.75,366.75 M 411.75,364.5 L 411.75,369.25 M 488,462.25 L 486.75,462.25 M 486.75,460 L 486.75,464.5 M 499.25,462.25 L 499.75,462.25 M 499.75,460 L 499.75,464.5 M 121.5,221.75 L 143.5,223.25 L 162.25,225.5 L 182.25,229 L 187,229.75 L 213.75,235.25 L 232.5,240.25 L 246.75,244.5 L 259,249 L 273,255 L 288.75,263 L 300.5,269.5 L 310.75,275.75 L 320.75,282.75 L 322.5,284 L 331.25,291.25 L 342.25,301.25 L 356,314.75 L 378.75,338.25 L 398,358.75 L 405.5,366.75 L 415.25,378.75 L 430.75,397.75 L 433,400.25 L 442,410.5 L 493.75,462.25 L 509.25,480.75 L 522.75,497.75 L 537,516.5 L 539.75,520.5"
       style="fill:none;stroke:#ff0000;stroke-opacity:1;stroke-width:2.2496;stroke-linecap:butt;stroke-linejoin:miter;stroke-miterlimit:10;stroke-dasharray:none;stroke-dashoffset:0"
       id="path121" /><path
       d="M 545.01,520.5 C 545.01,523.398 542.658,525.75 539.76,525.75 C 536.862,525.75 534.51,523.398 534.51,520.5 C 534.51,517.602 536.862,515.25 539.76,515.25 C 542.658,515.25 545.01,517.602 545.01,520.5 M 498.99,462.24 C 498.99,465.138 496.638,467.49 493.74,467.49 C 490.842,467.49 488.49,465.138 488.49,462.24 C 488.49,459.342 490.842,456.99 493.74,456.99 C 496.638,456.99 498.99,459.342 498.99,462.24 M 438.27,400.26 C 438.27,403.158 435.918,405.51 433.02,405.51 C 430.122,405.51 427.77,403.158 427.77,400.26 C 427.77,397.362 430.122,395.01 433.02,395.01 C 435.918,395.01 438.27,397.362 438.27,400.26 M 410.73,366.78 C 410.73,369.678 408.378,372.03 405.48,372.03 C 402.582,372.03 400.23,369.678 400.23,366.78 C 400.23,363.882 402.582,361.53 405.48,361.53 C 408.378,361.53 410.73,363.882 410.73,366.78 M 384.03,338.22 C 384.03,341.118 381.678,343.47 378.78,343.47 C 375.882,343.47 373.53,341.118 373.53,338.22 C 373.53,335.322 375.882,332.97 378.78,332.97 C 381.678,332.97 384.03,335.322 384.03,338.22 M 327.75,283.98 C 327.75,286.878 325.398,289.23 322.5,289.23 C 319.602,289.23 317.25,286.878 317.25,283.98 C 317.25,281.082 319.602,278.73 322.5,278.73 C 325.398,278.73 327.75,281.082 327.75,283.98 M 278.25,255 C 278.25,257.898 275.898,260.25 273,260.25 C 270.102,260.25 267.75,257.898 267.75,255 C 267.75,252.102 270.102,249.75 273,249.75 C 275.898,249.75 278.25,252.102 278.25,255 M 192.27,229.74 C 192.27,232.638 189.918,234.99 187.02,234.99 C 184.122,234.99 181.77,232.638 181.77,229.74 C 181.77,226.842 184.122,224.49 187.02,224.49 C 189.918,224.49 192.27,226.842 192.27,229.74 M 126.75,221.76 C 126.75,224.658 124.398,227.01 121.5,227.01 C 118.602,227.01 116.25,224.658 116.25,221.76 C 116.25,218.862 118.602,216.51 121.5,216.51 C 124.398,216.51 126.75,218.862 126.75,221.76"
       style="fill:#ff0000;stroke:#ff0000;stroke-opacity:1;stroke-width:0.75000000000000000;stroke-linecap:butt;stroke-linejoin:miter;stroke-miterlimit:10;stroke-dasharray:none"
       id="path123" /><path
       d="M 121.5,228 L 56.75,228 M 121.5,228 L 158,228 M 158,225.75 L 158,230.25 M 121.5,228 L 121.5,233.25 M 119.25,233.25 L 123.75,233.25 M 121.5,228 L 121.5,222.25 M 119.25,222.25 L 123.75,222.25 M 187,230.75 L 158,230.75 M 158,228.5 L 158,233 M 187,230.75 L 207.5,230.75 M 207.5,228.5 L 207.5,233 M 187,230.75 L 187,234.25 M 184.75,234.25 L 189.25,234.25 M 187,230.75 L 187,227 M 184.75,227 L 189.25,227 M 273,254.25 L 247.5,254.25 M 247.5,252 L 247.5,256.5 M 273,254.25 L 291.75,254.25 M 291.75,252 L 291.75,256.5 M 273,254.25 L 273,256 M 270.75,256 L 275.25,256 M 273,254.25 L 273,252.25 M 270.75,252.25 L 275.25,252.25 M 322.5,282.75 L 306.5,282.75 M 306.5,280.5 L 306.5,285 M 322.5,282.75 L 335.5,282.75 M 335.5,280.5 L 335.5,285 M 322.5,282.75 L 322.5,284.5 M 320.25,284.5 L 324.75,284.5 M 322.5,282.75 L 322.5,281 M 320.25,281 L 324.75,281 M 378.75,327.5 L 368.25,327.5 M 368.25,325.25 L 368.25,329.75 M 378.75,327.5 L 387.75,327.5 M 387.75,325.25 L 387.75,329.75 M 378.75,327.5 L 378.75,329 M 376.5,329 L 381,329 M 378.75,327.5 L 378.75,326.25 M 376.5,326.25 L 381,326.25 M 405.5,344.5 L 398.5,344.5 M 398.5,342.25 L 398.5,346.75 M 405.5,344.5 L 411.75,344.5 M 411.75,342.25 L 411.75,346.75 M 405.5,344.5 L 405.5,346 M 403.25,346 L 407.75,346 M 405.5,344.5 L 405.5,343.25 M 403.25,343.25 L 407.75,343.25 M 433,362.75 L 428.25,362.75 M 428.25,360.5 L 428.25,365 M 433,362.75 L 437.25,362.75 M 437.25,360.5 L 437.25,365 M 433,362.75 L 433,364.25 M 430.75,364.25 L 435.25,364.25 M 433,362.75 L 433,361.5 M 430.75,361.5 L 435.25,361.5 M 493.75,384.5 L 486.75,384.5 M 486.75,382.25 L 486.75,386.75 M 493.75,384.5 L 499.75,384.5 M 499.75,382.25 L 499.75,386.75 M 493.75,384.5 L 493.75,385.25 M 491.25,385.25 L 496,385.25 M 493.75,384.5 L 493.75,383.75 M 491.25,383.75 L 496,383.75 M 539.75,401.5 L 536.25,401.5 M 536.25,399.25 L 536.25,403.75 M 539.75,401.5 L 543,401.5 M 543,399.25 L 543,403.75 M 539.75,401.5 L 539.75,402.5 M 537.5,402.5 L 542,402.5 M 539.75,401.5 L 539.75,400.25 M 537.5,400.25 L 542,400.25 M 121.5,228 L 134.75,227.5 L 148,227.5 L 161.5,228 L 174,229.25 L 187,230.75 L 203.25,233.25 L 217.25,236 L 229.25,238.75 L 240.5,242 L 251.5,245.5 L 261,249 L 270.5,253 L 273,254.25 L 283.5,259.25 L 294.25,265.25 L 305.25,271.75 L 316.75,279 L 322.5,282.75 L 329.75,288 L 337.75,294.5 L 351.5,305.75 L 364.5,317 L 372,322.75 L 378.75,327.5 L 405.5,344.5 L 416.75,352.25 L 426.75,359 L 433,362.75 L 439.5,366.25 L 446.75,369.5 L 493.75,384.5 L 539.75,401.5"
       style="fill:none;stroke:#0000ff;stroke-opacity:1;stroke-width:1.50000000000000000;stroke-linecap:butt;stroke-linejoin:miter;stroke-miterlimit:10;stroke-dasharray:none"
       id="path125" /><path
       d="M 545.01,401.52 C 545.01,404.418 542.658,406.77 539.76,406.77 C 536.862,406.77 534.51,404.418 534.51,401.52 C 534.51,398.622 536.862,396.27 539.76,396.27 C 542.658,396.27 545.01,398.622 545.01,401.52"
       style="fill:#0000ff;fill-opacity:1;fill-rule:evenodd;stroke:none"
       id="path127" /><path
       d="M 498.99,384.48 C 498.99,387.378 496.638,389.73 493.74,389.73 C 490.842,389.73 488.49,387.378 488.49,384.48 C 488.49,381.582 490.842,379.23 493.74,379.23 C 496.638,379.23 498.99,381.582 498.99,384.48"
       style="fill:#0000ff;fill-opacity:1;fill-rule:evenodd;stroke:none"
       id="path129" /><path
       d="M 438.27,362.76 C 438.27,365.658 435.918,368.01 433.02,368.01 C 430.122,368.01 427.77,365.658 427.77,362.76 C 427.77,359.862 430.122,357.51 433.02,357.51 C 435.918,357.51 438.27,359.862 438.27,362.76"
       style="fill:#0000ff;fill-opacity:1;fill-rule:evenodd;stroke:none"
       id="path131" /><path
       d="M 410.73,344.52 C 410.73,347.418 408.378,349.77 405.48,349.77 C 402.582,349.77 400.23,347.418 400.23,344.52 C 400.23,341.622 402.582,339.27 405.48,339.27 C 408.378,339.27 410.73,341.622 410.73,344.52"
       style="fill:#0000ff;fill-opacity:1;fill-rule:evenodd;stroke:none"
       id="path133" /><path
       d="M 384.03,327.48 C 384.03,330.378 381.678,332.73 378.78,332.73 C 375.882,332.73 373.53,330.378 373.53,327.48 C 373.53,324.582 375.882,322.23 378.78,322.23 C 381.678,322.23 384.03,324.582 384.03,327.48"
       style="fill:#0000ff;fill-opacity:1;fill-rule:evenodd;stroke:none"
       id="path135" /><path
       d="M 327.75,282.78 C 327.75,285.678 325.398,288.03 322.5,288.03 C 319.602,288.03 317.25,285.678 317.25,282.78 C 317.25,279.882 319.602,277.53 322.5,277.53 C 325.398,277.53 327.75,279.882 327.75,282.78"
       style="fill:#0000ff;fill-opacity:1;fill-rule:evenodd;stroke:none"
       id="path137" /><path
       d="M 278.25,254.22 C 278.25,257.118 275.898,259.47 273,259.47 C 270.102,259.47 267.75,257.118 267.75,254.22 C 267.75,251.322 270.102,248.97 273,248.97 C 275.898,248.97 278.25,251.322 278.25,254.22"
       style="fill:#0000ff;fill-opacity:1;fill-rule:evenodd;stroke:none"
       id="path139" /><path
       d="M 192.27,230.76 C 192.27,233.658 189.918,236.01 187.02,236.01 C 184.122,236.01 181.77,233.658 181.77,230.76 C 181.77,227.862 184.122,225.51 187.02,225.51 C 189.918,225.51 192.27,227.862 192.27,230.76"
       style="fill:#0000ff;fill-opacity:1;fill-rule:evenodd;stroke:none"
       id="path141" /><path
       d="M 126.75,228 C 126.75,230.898 124.398,233.25 121.5,233.25 C 118.602,233.25 116.25,230.898 116.25,228 C 116.25,225.102 118.602,222.75 121.5,222.75 C 124.398,222.75 126.75,225.102 126.75,228"
       style="fill:#0000ff;fill-opacity:1;fill-rule:evenodd;stroke:none"
       id="path143" /><text
       transform="matrix(1,0,0,-1,224,571.5)"
       id="text145"><tspan
         style="fill:#000000;fill-opacity:1;fill-rule:nonzero;stroke:none;font-family:Helvetica;font-variant:normal;font-weight:bold;font-size:26.289;writing-mode:lr;-inkscape-font-specification:Helvetica-Bold"
         x="0 15.352776 29.96946 37.277802"
         y="0"
         sodipodi:role="line"
         id="tspan147">&lt;0.2</tspan></text>
<text
       transform="matrix(1,0,0,-1,209.24924,571.5)"
       id="text149"><tspan
         style="fill:#000000;fill-opacity:1;fill-rule:nonzero;stroke:none;font-family:Symbol;font-variant:normal;font-weight:normal;font-size:26.289;writing-mode:lr;-inkscape-font-specification:Symbol"
         x="0"
         y="0"
         id="tspan151">η</tspan></text>
<text
       transform="matrix(1,0,0,-1,157.74909,571.5)"
       id="text153"><tspan
         style="fill:#000000;fill-opacity:1;fill-rule:nonzero;stroke:none;font-family:Helvetica;font-variant:normal;font-weight:bold;font-size:26.289;writing-mode:lr;-inkscape-font-specification:Helvetica-Bold"
         x="0 14.616684 21.925026 36.54171"
         y="0"
         sodipodi:role="line"
         id="tspan155">0.0&lt;</tspan></text>
<path
       style="opacity:1;fill:none;fill-opacity:1;fill-rule:evenodd;stroke:#000000;stroke-width:2;stroke-linecap:butt;stroke-linejoin:miter;marker:none;marker-start:none;marker-mid:none;marker-end:none;stroke-miterlimit:4;stroke-dasharray:8,8;stroke-dashoffset:0;stroke-opacity:1;visibility:visible;display:inline;overflow:visible;enable-background:accumulate"
       d="M 464.81491,731.16953 L 464.81491,13.927039"
       id="path3312"
       transform="matrix(0.8,0,0,-0.8,0,649)" /><text
       xml:space="preserve"
       style="font-size:28.79999924px;font-style:normal;font-variant:normal;font-weight:bold;font-stretch:normal;text-align:center;line-height:125%;writing-mode:lr-tb;text-anchor:middle;fill:#000000;fill-opacity:1;stroke:none;stroke-width:1px;stroke-linecap:butt;stroke-linejoin:miter;stroke-opacity:1;font-family:Bitstream Vera Sans;-inkscape-font-specification:Bitstream Vera Sans Bold"
       x="450.45712"
       y="-97.25119"
       id="text3314"
       sodipodi:linespacing="125%"
       transform="scale(1,-1)"><tspan
         sodipodi:role="line"
         id="tspan3316"
         x="450.45712"
         y="-97.25119">200 GeV</tspan></text>
<rect
       style="opacity:1;fill:#ffffff;fill-opacity:1;fill-rule:evenodd;stroke:none;stroke-width:1.00000083;stroke-linecap:butt;stroke-linejoin:miter;marker:none;marker-start:none;marker-mid:none;marker-end:none;stroke-miterlimit:4;stroke-dasharray:none;stroke-dashoffset:0;stroke-opacity:1;visibility:visible;display:inline;overflow:visible;enable-background:accumulate"
       id="rect3318"
       width="121.86159"
       height="125.34332"
       x="398.66147"
       y="494.40985"
       transform="matrix(0.8,0,0,-0.8,0,649)" /><text
       transform="scale(1,-1)"
       id="text157"
       x="336.8895"
       y="-195.85191"><tspan
         style="font-size:21.71710014px;font-variant:normal;font-weight:bold;writing-mode:lr-tb;fill:#000000;fill-opacity:1;fill-rule:nonzero;stroke:none;font-family:Helvetica;-inkscape-font-specification:Helvetica-Bold"
         x="336.8895 354.97983 368.24899 381.51813 394.78729 400.82465 412.89935 424.97406 437.04877 444.28055 456.35526 475.66174 481.6991 494.96826 508.2374 514.27478"
         y="-195.85191"
         sodipodi:role="line"
         id="tspan159">Muon system only</tspan><tspan
         style="font-size:21.71710014px;font-variant:normal;font-weight:bold;writing-mode:lr-tb;fill:#ff0000;fill-opacity:1;fill-rule:nonzero;stroke:none;font-family:Helvetica;-inkscape-font-specification:Helvetica-Bold"
         x="336.8895 342.92685 356.19598 369.46515 381.53986 389.98779 396.02515 409.29431 417.74225 429.81696 441.89166 453.96637 466.04108 474.48904 480.5264 493.79553 507.0647 513.10205"
         y="-161.60188"
         sodipodi:role="line"
         id="tspan161">Inner Tracker only</tspan><tspan
         style="font-size:21.71710014px;font-variant:normal;font-weight:bold;writing-mode:lr-tb;fill:#0000ff;fill-opacity:1;fill-rule:nonzero;stroke:none;font-family:Helvetica;-inkscape-font-specification:Helvetica-Bold"
         x="336.8895 350.15863 363.4278 369.46515 375.5025 381.53986 393.61456 405.68927 417.76398 424.99576 437.07047"
         y="-229.10298"
         sodipodi:role="line"
         id="tspan163">Full system</tspan></text>
<path
       d="M 327.63949,208.35193 L 322.38949,208.35193 L 322.38949,197.85193 L 332.88949,197.85193 L 332.88949,208.35193"
       style="fill:#000000;fill-opacity:1;fill-rule:evenodd;stroke:none"
       id="path165" /><path
       d="M 332.88949,169.57193 C 332.88949,172.46993 330.53749,174.82193 327.63949,174.82193 C 324.74149,174.82193 322.38949,172.46993 322.38949,169.57193 C 322.38949,166.67393 324.74149,164.32193 327.63949,164.32193 C 330.53749,164.32193 332.88949,166.67393 332.88949,169.57193"
       style="fill:#ff0000;stroke:#ff0000;stroke-width:0.75;stroke-linecap:butt;stroke-linejoin:miter;stroke-miterlimit:10;stroke-dasharray:none;stroke-opacity:1"
       id="path167" /><path
       d="M 332.88949,236.59193 C 332.88949,239.48993 330.53749,241.84193 327.63949,241.84193 C 324.74149,241.84193 322.38949,239.48993 322.38949,236.59193 C 322.38949,233.69393 324.74149,231.34193 327.63949,231.34193 C 330.53749,231.34193 332.88949,233.69393 332.88949,236.59193"
       style="fill:#0000ff;fill-opacity:1;fill-rule:evenodd;stroke:none"
       id="path169" /></g></svg>